<svg width="42" height="48" viewBox="0 0 42 48" fill="none" xmlns="http://www.w3.org/2000/svg">
<path d="M41.5945 16.5848C41.5945 7.83363 32.3375 0.666626 21.0001 0.666626C9.66263 0.666626 0.40564 7.83363 0.40564 16.5848C0.40564 24.8207 8.59378 31.6537 19.015 32.4267V45.3387C19.015 46.4362 19.9121 47.3333 21.0096 47.3333C22.1071 47.3333 23.0041 46.4362 23.0041 45.3387V32.4362C33.4063 31.6537 41.5945 24.8207 41.5945 16.5848ZM22.9946 28.5426V25.4792L30.9537 19.5814C31.8508 18.9802 31.9462 17.7873 31.3545 16.8998C30.7533 16.0027 29.5604 15.9073 28.6729 16.4989L23.0041 20.7075V16.4989C23.0041 15.4015 22.1071 14.5044 21.0096 14.5044C19.9121 14.5044 19.015 15.4015 19.015 16.4989V22.6925L13.3368 18.0831C12.4397 17.3865 11.2468 17.5869 10.5502 18.379C9.85349 19.276 10.0539 20.4689 10.846 21.1656L19.0055 27.7791V28.533C10.6933 27.8173 4.28021 22.6639 4.28021 16.4798C4.28976 9.81864 11.7431 4.44577 21.0001 4.44577C30.257 4.44577 37.7103 9.91407 37.7103 16.5848C37.7103 22.7689 31.2973 27.8364 22.9946 28.5426Z" fill="#C2E978"/>
</svg>
