<svg width="55" height="71" viewBox="0 0 55 71" fill="none" xmlns="http://www.w3.org/2000/svg">
<path d="M54.145 35.5218C54.145 38.147 53.9192 40.8471 53.4675 43.6223C52.9783 46.3975 52.2443 49.0789 51.2658 51.6666C50.2872 54.2918 49.064 56.7669 47.5961 59.0921C46.1283 61.4548 44.397 63.4986 42.4022 65.2238C40.4075 66.9864 38.1492 68.374 35.6275 69.3865C33.0682 70.3991 30.2642 70.9054 27.2156 70.9054C24.1294 70.9054 21.3254 70.3991 18.8037 69.3865C16.2444 68.374 13.9674 67.0051 11.9726 65.28C9.97783 63.5549 8.24652 61.5298 6.77867 59.2046C5.27319 56.8795 4.03115 54.4043 3.05258 51.7791C2.07402 49.1539 1.35892 46.4538 0.907272 43.6786C0.417989 40.9034 0.17334 38.1845 0.17334 35.5218C0.17334 32.8966 0.417989 30.1964 0.907272 27.4212C1.39656 24.6461 2.14929 21.9459 3.1655 19.3207C4.14406 16.6955 5.38609 14.2204 6.89157 11.8952C8.35942 9.57006 10.0907 7.52617 12.0855 5.76356C14.0803 4.03844 16.3385 2.6696 18.8602 1.65703C21.3819 0.644467 24.167 0.138184 27.2156 0.138184C30.189 0.138184 32.9365 0.644467 35.4582 1.65703C37.9422 2.7071 40.1816 4.11345 42.1764 5.87606C44.1712 7.63868 45.9213 9.68257 47.4268 12.0077C48.9323 14.3704 50.1931 16.8643 51.2093 19.4895C52.1879 22.1146 52.9218 24.7961 53.4111 27.5338L54.145 35.5218ZM45.1686 35.5218C45.1686 33.7592 45.0368 31.884 44.7734 29.8964C44.4723 27.9088 44.0206 25.9211 43.4184 23.9335C42.7786 21.9834 41.9882 20.1083 41.0473 18.3081C40.1064 16.5455 38.9772 14.9704 37.6599 13.5828C36.305 12.2327 34.7619 11.1452 33.0306 10.3201C31.2993 9.53256 29.361 9.13878 27.2156 9.13878C25.0327 9.13878 23.0755 9.53256 21.3442 10.3201C19.6129 11.1452 18.0886 12.2327 16.7713 13.5828C15.4164 14.9329 14.2685 16.4893 13.3275 18.2519C12.3866 20.052 11.615 21.9271 11.0128 23.8773C10.373 25.8649 9.92137 27.8525 9.65791 29.8402C9.35682 31.8278 9.20627 33.7217 9.20627 35.5218C9.20627 37.2844 9.35682 39.1595 9.65791 41.1472C9.92137 43.1723 10.373 45.1599 11.0128 47.1101C11.615 49.0977 12.3866 50.9916 13.3275 52.7917C14.2685 54.5918 15.4164 56.1669 16.7713 57.517C18.0886 58.9046 19.6129 59.9922 21.3442 60.7797C23.0755 61.6048 25.0327 62.0173 27.2156 62.0173C29.361 62.0173 31.2993 61.6048 33.0306 60.7797C34.7619 59.9547 36.305 58.8483 37.6599 57.4607C38.9772 56.1107 40.1064 54.5355 41.0473 52.7354C41.9882 50.9353 42.7786 49.0414 43.4184 47.0538C44.0206 45.1037 44.4723 43.1348 44.7734 41.1472L45.1686 35.5218Z" fill="white"/>
<mask id="mask0_150_1182" style="mask-type:alpha" maskUnits="userSpaceOnUse" x="0" y="0" width="55" height="71">
<path fill-rule="evenodd" clip-rule="evenodd" d="M53.4675 43.6223C53.9192 40.8471 54.145 38.147 54.145 35.5218L53.4111 27.5338C52.9218 24.7961 52.1879 22.1146 51.2093 19.4895C50.1931 16.8643 48.9323 14.3704 47.4268 12.0077C45.9213 9.68257 44.1712 7.63868 42.1764 5.87606C40.1816 4.11345 37.9422 2.7071 35.4582 1.65703C32.9365 0.644467 30.189 0.138184 27.2156 0.138184C24.167 0.138184 21.3819 0.644467 18.8602 1.65703C16.3385 2.6696 14.0803 4.03844 12.0855 5.76356C10.0907 7.52617 8.35942 9.57006 6.89157 11.8952C5.38609 14.2204 4.14406 16.6955 3.1655 19.3207C2.14929 21.9459 1.39656 24.6461 0.907272 27.4212C0.417989 30.1964 0.17334 32.8966 0.17334 35.5218C0.17334 38.1845 0.417989 40.9034 0.907272 43.6786C1.35892 46.4538 2.07402 49.1539 3.05258 51.7791C4.03115 54.4043 5.27319 56.8795 6.77867 59.2046C8.24652 61.5298 9.97783 63.5549 11.9726 65.28C13.9674 67.0051 16.2444 68.374 18.8037 69.3865C21.3254 70.3991 24.1294 70.9054 27.2156 70.9054C30.2642 70.9054 33.0682 70.3991 35.6275 69.3865C38.1492 68.374 40.4075 66.9864 42.4022 65.2238C44.397 63.4986 46.1283 61.4548 47.5961 59.0921C49.064 56.7669 50.2872 54.2918 51.2658 51.6666C52.2443 49.0789 52.9783 46.3975 53.4675 43.6223Z" fill="#C4C4C4"/>
</mask>
<g mask="url(#mask0_150_1182)">
<path fill-rule="evenodd" clip-rule="evenodd" d="M75.0001 -8H-21.9999V80H75.0001V-8ZM52.5372 45.2932C53.1364 43.917 53.6864 42.6533 53.7384 40.9641C53.7701 40.332 53.7701 39.7019 53.8081 39.0828L53.9474 38.9402V38.8591H53.8925L53.8397 38.9402V38.689H53.8672L54.0001 38.5569V38.4207L53.8397 38.5825V37.2332V36.9927V35.1047L53.8904 35.0771V34.6833C54.0237 31.0649 52.9224 28.2659 51.6779 25.1033L51.4507 24.5249C51.2164 22.571 49.87 19.2998 48.4517 17.9397C48.4312 17.9197 48.4099 17.8999 48.3883 17.8801C48.3434 17.8391 48.2968 17.7983 48.2512 17.7568V17.7354L48.2006 17.7185C48.0529 17.5894 47.8988 17.4617 47.7384 17.3354L47.7869 17.2693L47.713 17.3184C46.7908 16.6021 45.6979 15.99 44.6492 15.4031C44.0492 15.0671 43.4636 14.7393 42.9329 14.4045C42.4346 14.1033 41.983 13.74 41.5349 13.3792C41.017 12.9624 40.5035 12.5493 39.9276 12.24C39.5126 12.0078 39.0739 11.8215 38.6191 11.6846L38.7035 11.6633L38.6254 11.6377L38.6106 11.6824C37.9521 11.4739 37.2684 11.3271 36.6353 11.1567C35.6649 10.8831 34.7573 10.5872 33.8556 10.2935C33.0962 10.0459 32.3408 9.7998 31.5554 9.56909C30.3518 9.22021 29.1079 9.03271 27.8557 9.01147V9.00073H27.7755C25.1887 8.979 22.6179 9.41113 20.1779 10.2778L20.1061 10.2053L19.7463 10.3008C17.3307 10.9419 14.0692 11.8076 12.2974 13.5256L12.3691 13.6704C11.7485 14.532 10.8389 15.2009 9.92175 15.8752C9.77856 15.9805 9.63513 16.0859 9.49268 16.1924L9.54541 16.1414L9.57275 16.0859L9.70581 15.9243V15.7646L9.78381 15.7114L9.94421 15.7922L10.0773 15.6838L9.97168 15.4963H9.83875L9.78381 15.605H9.67834L9.62561 15.7114L9.54541 15.7371L9.41248 15.605V15.8179L9.35962 15.9243V16.1372L9.30688 16.2434V16.3245H9.32166C9.12537 16.4734 8.93127 16.6267 8.74548 16.7842L8.64209 16.8054V16.8691C8.51099 16.9827 8.38367 17.1006 8.26038 17.2224C8.09924 17.3816 7.94495 17.5479 7.79797 17.7205C7.48376 18.0784 7.23389 18.5042 6.98914 18.9214C6.78845 19.2634 6.59119 19.5996 6.36487 19.8872C6.15308 20.1726 5.92444 20.4426 5.698 20.71C5.23865 21.2524 4.78833 21.7842 4.50562 22.4114C3.94873 23.5334 3.57092 24.6599 3.18787 25.8022C2.93225 26.5645 2.67432 27.3337 2.35925 28.1133C1.78735 29.4839 1.35681 31.8677 1.28503 33.4531V33.7427L1.00012 33.6704C1.59314 34.3494 1.72827 35.9988 1.72827 37.6418L1.69653 37.6099L1.6438 37.7971L1.72827 37.7312C1.72668 38.4614 1.70068 39.1868 1.67798 39.8223C1.67004 40.0425 1.66248 40.252 1.65649 40.447L1.5636 40.3745L1.43066 40.6428V40.8066H1.50879V40.8875H1.61426V40.5662L1.64172 40.5916V41.1067C1.62988 41.8687 1.71423 42.6289 1.89282 43.3691L1.86755 43.4648L1.91602 43.4458C2.0271 43.8601 2.17908 44.2625 2.36975 44.6462C2.43982 44.7944 2.51746 44.939 2.60229 45.0791C2.63953 45.1406 2.6781 45.2014 2.71802 45.2612C3.31104 46.2722 4.56262 48.3813 5.78662 50.2842L5.81201 50.3757H5.8479L5.95886 50.5469C6.01807 50.6387 6.07715 50.73 6.13696 50.8206L6.02307 50.8586L5.81201 51.0715H5.86267L5.96606 50.9971H6.07153L6.1792 50.8906H6.21924C6.5907 51.4463 6.94531 51.9697 7.27454 52.4231L7.47083 52.7146C7.58057 52.853 7.69238 52.9915 7.8064 53.1277C7.98499 53.3608 8.17969 53.5813 8.38879 53.7874C8.5155 53.9214 8.64636 54.0513 8.7793 54.1812C8.8468 54.2002 12.9517 55.3708 13.5574 56.135C13.8929 56.5605 14.7625 56.9585 15.5391 57.2205C15.5686 57.2288 20.2897 58.3101 21.6594 55.7986V55.7859C23.3267 52.7529 25.3126 48.9836 25.8593 47.9365L25.6672 47.9004L23.428 48.7112L23.1262 48.4558L25.5723 47.5706L26.009 47.6536L26.0323 47.2576L25.0868 47.0916L23.3414 47.5706L22.7948 47.9514L22.4803 47.8047L21.5328 48.0642L19.2113 48.3027L19.0636 48.009L21.3112 47.7769L23.0122 47.3108L23.9071 46.6829L26.0808 46.4189L26.1146 45.8062L23.4491 46.6255L19.5574 46.5894L18.3523 47.2065L17.9176 48.3132L17.3456 48.2366L17.5989 47.5981L16.5585 48.1345L16.1364 47.9216L18.1223 46.9001L15.8641 47.0405L15.7607 46.7427L18.7976 46.5552L19.2979 46.2979L23.2634 46.3359L23.9282 46.1233L21.5243 46.0188L18.5106 46.0999L18.4452 45.7998L21.5181 45.7188L24.783 45.8594L26.1357 45.4443V45.374L24.5676 45.8103L22.4973 45.2974L22.6893 45.0229L24.5297 45.4783L26.1547 45.0271V44.8271L25.473 45.0398L21.803 44.6143L19.5953 45.0505L19.4308 44.8525L17.0776 45.9763L16.6555 45.7507L19.3126 44.4736L21.2289 44.1162L19.5912 44.1501L14.9946 45.3782L14.7181 45.2932L13.0719 45.9316L12.7068 45.689L14.1567 45.1357L12.6794 44.6865L12.9474 44.4355L14.9819 45.0505L16.1849 44.7292L14.0745 44.3291L14.2454 44.0481L16.8813 44.5376L19.4139 43.8608L26.2075 43.7161V43.6755L19.207 43.7778L16.7252 44.1418L14.9229 43.9949L14.9799 43.699L16.6534 43.8352L19.1121 43.4778L26.218 43.3755L26.2349 43.0564L23.2676 42.7817L20.6591 43.4202L14.5387 43.0691L14.5682 42.771L20.5366 43.1074L21.803 42.7988L19.8677 42.6135L19.8929 42.6328L18.7238 42.9839L15.8937 42.2729L16.0752 42.0007L18.6267 42.6392L19.4814 42.3838L19.5089 42.2751L22.5099 42.5625L22.493 42.6306L23.1685 42.4668L25.2008 42.6562L24.5043 42.2539L24.7365 42.1262L24.4474 42.0986L24.5065 41.8154L23.2887 42.2156L23.0038 41.9539L24.9771 41.3152H25.0446L26.3468 41.2939L26.37 40.8684L24.3777 41.2024L23.6475 41.0215L23.8247 41.1301L22.7463 41.592L18.9475 41.9197L15.7817 40.9578L16.0752 40.7002L19.0509 41.6025L22.4846 41.3047L23.3287 40.9385L22.8561 40.8215V40.8342L21.4357 41.2366L19.4308 40.3257L17.6602 40.564L17.5441 40.2703L19.5173 40.0042L21.4631 40.9023L22.2356 40.6895L21.1803 40.4299L21.3323 40.1511L24.3735 40.8982L26.3741 40.5618L26.3911 40.2937L24.9686 40.4172L22.225 40.0789L22.2778 39.8999L21.3344 40.0361L21.2141 39.7446L22.014 39.6296L21.0791 39.353L19.663 39.7786L19.3549 39.6978L18.1814 40.1511L16.3833 39.2488L16.6639 39.0146L18.2025 39.7849L18.804 39.553L17.5187 39.2168L17.6812 38.9402L19.6398 39.4531L20.5219 39.1826L18.46 38.5718L18.6436 38.3015L21.0558 39.021L21.1593 38.989L21.2268 39.072L22.0562 39.3169L24.4579 38.9827L25.4603 39.1443L25.281 38.9316L26.4818 38.6313L26.4987 38.3442L25.0593 38.855L23.1937 38.3994L21.2943 38.6719L21.1741 38.3804L23.2212 38.0886L25.015 38.5144L26.5367 37.9739V37.8779L23.1599 37.4822L21.1191 37.9717L20.8469 37.697L23.0228 37.1736L20.946 36.999L19.5363 37.4822L19.1902 37.4141L19.205 37.429L17.8649 37.8547L15.6636 37.6738L15.7163 37.3757L17.7255 37.5417L18.5254 37.2905L15.4146 36.699L15.577 36.4158L19.4224 37.1609L20.0554 36.948H19.8445L19.7916 36.6479L21.691 36.5989L22.7886 36.3096H22.7379L22.8138 36.0967L22.3369 36.218L20.9819 35.9094L21.0432 36.0286L17.0059 36.4883L16.856 36.1946L20.6548 35.7688L20.7836 35.5559L22.299 35.9028L23.4069 35.6199L20.9694 35.2112L17.5757 35.6113L13.2302 34.0215L13.5826 33.7852L17.6812 35.2856L19.8761 35.0176L18.9834 34.8687L17.5504 34.8962L14.3424 33.3533L14.7645 33.1404L17.7761 34.6047L19.0425 34.5813L24.1519 35.4326L24.3481 35.3835L24.4072 35.4561L26.6865 35.2432L26.6971 35.0303L25.3717 35.1453L21.6742 34.9878L18.1265 34.1257L18.3755 33.8577L21.8092 34.6919L25.3021 34.843L26.7161 34.7195L26.7329 34.396L21.1719 34.5046L17.8416 33.4214L18.1646 33.1765L21.3154 34.2002L26.7499 34.0938V33.9641L23.9176 34.0874L20.752 33.6619L16.7843 32.3955L17.1008 32.1484L20.9799 33.385L23.9344 33.7852L26.7667 33.6619L26.7794 33.4363L24.1625 33.5044L18.9855 32.0974L19.262 31.8379L24.27 33.2L26.8026 33.134L26.8174 32.9084L24.6521 32.9573L20.6063 31.9995L20.8469 31.7314L24.7512 32.655L25.9078 32.6296L25.8466 32.3572L26.8596 32.3103V32.155L25.9817 32.3337L25.7896 32.0505L26.8785 31.8271V31.7036L24.7112 32.1719L24.5106 31.8911L26.906 31.3738L26.925 31.0525L22.5859 31.6611L20.8469 31.2483L21.0875 30.9717L22.6007 31.3313L26.9377 30.7227L26.9546 30.4438H26.8406L24.9285 30.8269L24.7407 30.5417L24.3165 30.7183L21.8303 30.697V30.397L24.1962 30.416L24.8694 30.1394L23.2338 30.1267L22.6471 29.8733L21.1698 30.4458L20.944 30.1841L22.2102 29.6882L20.9946 29.1604L21.0853 29.0603L20.9144 29.0115L21.1973 28.7539L23.3668 29.3604L24.5106 29.3264L21.7439 28.5942L19.4983 28.8752L19.3042 28.5835L20.9355 28.3708L20.4501 28.241L19.0129 28.3665L18.8651 28.0706L20.5155 27.928L24.6331 29.0178L24.8589 28.9966L23.3098 28.4558L23.5588 28.2004L23.62 28.2217L23.7256 27.9429L25.625 28.26L25.7009 28.2302L24.7238 27.9387L24.8273 27.7983L23.8226 27.9216L22.9531 27.5513L21.6299 27.6003L21.5856 27.3003L22.3031 27.2747L22.0477 27.166L22.0773 27.1343L19.3126 27.4746L19.0107 27.3469V27.3767L17.6073 27.428L17.563 27.1279L18.422 27.0979L17.5314 26.717L17.7783 26.4702L19.3885 27.1577L22.1702 26.8149L23.7593 27.1768L23.62 27.4597L23.4891 27.4299L23.8987 27.6045L24.92 27.479L23.7847 27.2661L23.9155 26.981L25.8951 27.3704L26.6824 27.2747L27.1191 27.3726L27.1466 26.8723L25.3295 27.0852L22.6218 26.353L20.3657 26.6277L17.9661 25.5635L18.2405 25.323L20.4607 26.3127L22.6598 26.0466L25.3633 26.7788L27.1656 26.5659L27.1782 26.3318L24.9918 26.532L22.8983 26.0125L23.0608 25.7358L23.4829 25.8381L22.835 25.5273L21.6067 26.0146L20.0111 24.8313L20.3784 24.6462L21.691 25.6189L22.4128 25.3379L21.29 24.8015L21.5792 24.5674L23.8353 25.6465L27.2227 25.5315L27.2352 25.3188L25.0531 25.4868L23.1685 24.8164L23.3794 24.5588L25.127 25.1782L26.026 25.106L24.92 25.01L24.9666 24.7144L26.4734 24.842L27.1213 24.7483L27.0242 24.7185L24.3945 24.6738L23.9578 24.4609L22.1786 24.3865L22.1913 24.0864L23.2465 24.1333L22.8708 23.9565L20.5598 24.1694L20.4691 23.8735L22.3242 23.7075L21.2246 23.1904L21.5117 22.9626L24.1223 24.1802H24.135L24.5571 24.3738L26.0112 24.3972L22.8455 23.0479L23.1093 22.803L26.1526 24.1035L26.7372 24.063L25.2156 23.4692L25.2788 23.4033L24.0358 23.0117L24.2468 22.7456L25.4498 23.1245L26.3214 23.0159L25.8149 22.803L26.0049 22.552L26.849 22.9138L27.3788 22.8625L27.4147 22.1965L26.2053 22.0391V22.0093L21.9844 22.2944L19.9161 21.6069L20.1272 21.3452L22.0583 21.9836L23.3246 21.8984L21.5138 21.4067L21.691 21.1345L24.2764 21.8452L27.4421 21.6326L27.4526 21.4197H23.8163L21.691 20.4705L21.9971 20.2151L23.9873 21.1067H25.0974L24.8525 21.0132L25.0002 20.8557L23.6327 20.9023L21.8621 19.9531L22.1702 19.7405L23.7867 20.6067L25.4244 20.5513L25.1543 20.3811L25.4921 20.1682L26.0555 20.5215L27.3218 20.479L26.6886 20.3596L26.8131 20.0723L27.5328 20.2107L27.5476 19.9214L24.0907 20.2598L21.7692 19.4722L21.9802 19.2126L24.1434 19.9468L24.4052 19.9214L23.9366 19.8042L24.1034 19.5276L25.321 19.8318L27.5476 19.6191V19.4766L25.2599 19.6467L23.3816 19.2104L23.4807 18.9209L25.2874 19.3467L27.5645 19.1785V19.0657L27.3704 19.0295L27.3513 19.0549L25.7009 18.7188L25.1776 18.8677V18.8806L24.6267 19.0359L24.5465 18.7485L24.8187 18.6699L23.8944 18.1272L24.0421 17.8696L25.2177 18.5549L25.722 18.4124L25.7452 18.3804H25.7981L26.1062 18.293L26.1505 18.4526L27.1277 18.6528L27.6003 18.74L27.6215 18.3826L26.6886 18.1079L26.8828 17.8398L27.6405 18.0525L27.651 17.8398L27.3134 17.7952L27.364 17.6143L26.3953 18.0142L24.9834 17.231L25.2979 17.0183L26.4227 17.6418L27.689 17.114V17.0884L24.498 16.9502L22.0225 15.918L22.2841 15.6709L24.6458 16.6584L27.7291 16.7861V16.6799L25.0468 16.4861L22.8961 15.6094L23.1515 15.3623L25.2008 16.1968L27.7333 16.3796L27.7439 16.2136H27.7291H26.9946L24.4811 15.8455L23.1494 14.6409L23.5461 14.479L23.8458 14.7495L24.0948 14.575L25.7305 15.4709L27.7291 15.3794L25.2979 15.1028L24.5106 14.5791L24.8568 14.3792L25.5321 14.8176L27.7333 15.0686H27.8114V14.9856H27.7291L26.0576 14.7727L24.5529 14.0386L24.8441 13.8257L26.2581 14.5088L27.7355 14.6919L27.8346 14.6792V14.5918L27.7291 14.6025L26.9714 14.5281L25.433 13.8257L25.7136 13.5811L27.1487 14.2366L27.5244 14.2749L26.0619 13.5427L26.3552 13.3127L26.7478 13.5085L26.9103 13.3489L27.5433 13.6064H27.7291H27.8875V13.4575H27.7185L27.2036 13.4363L24.9707 12.2615L25.2767 12.0359L27.3872 13.1445L27.7249 13.1594H27.9084L27.9275 12.8508L27.8473 12.885L27.7249 12.9084L27.6003 12.885L25.9099 12.1699L26.1737 11.925L27.7396 12.585L27.9507 12.4912L27.9613 12.2932L27.7291 12.4019L26.7119 11.9358L26.9926 11.6973L27.7333 12.0359L28.0477 11.8911L28.2251 11.7229V11.8081L28.4657 11.6973L28.7379 11.9336L28.2356 12.1636L28.2462 12.3613L29.2887 11.9231L29.561 12.1763L28.2736 12.7168L28.2905 13.0447L30.173 12.0527L30.479 12.2783L28.3074 13.4192V13.4575L28.55 13.3596L28.7125 13.5193L29.1051 13.3235L29.4006 13.5532L28.3453 14.0833V14.2322L29.7446 13.5938L30.0232 13.832L28.4868 14.5344L28.3601 14.5471V14.6196L29.2043 14.5154L30.6119 13.8257L30.9032 14.0386L29.3964 14.7812L28.3771 14.9111V14.9985L29.9219 14.8218L30.6141 14.3792L30.9602 14.5791L30.1646 15.0984L28.4044 15.2986V15.407L29.7256 15.4666L31.3612 14.5706L31.6102 14.7451L31.912 14.4749L32.3109 14.6367L30.9771 15.8413L28.4741 16.2117H28.4551V16.333L30.2743 16.2009L32.3236 15.3667L32.579 15.6135L30.4305 16.4905L28.4698 16.6309V16.7585L30.8062 16.6584L33.1677 15.6709L33.4274 15.918L30.9518 16.9502L28.4846 17.0586L28.5037 17.4204L29.0355 17.6333L30.1582 17.0117L30.4749 17.2246L29.0608 18.0078L28.5226 17.7952V17.844L28.5732 17.8291L28.7675 18.0972L28.5396 18.1653L28.5607 18.6082L29.3057 18.4548L29.35 18.2952L29.6581 18.376H29.7108L29.734 18.408L30.2384 18.5505L31.4139 17.8696L31.5554 18.1292L30.6289 18.6719L30.9011 18.7507L30.8209 19.0381L30.2722 18.8826H30.2595V18.8699L29.734 18.7209L28.5796 18.9678L28.5923 19.2444L30.1561 19.3594L31.9626 18.9338L32.0724 19.2146L30.1941 19.6509L28.6176 19.5339V19.6936L30.1329 19.8425L31.3676 19.5339L31.5321 19.8105L31.0658 19.9277L31.3253 19.9531L33.4885 19.219L33.6996 19.4785L31.3781 20.2661L28.6345 19.9978V20.083H28.6556L28.7886 20.3704L28.6556 20.3938V20.5066L29.428 20.532L29.9916 20.1787L30.3292 20.3916L30.0591 20.562L31.6989 20.6172L33.3134 19.751L33.6215 19.9639L31.8508 20.9131L30.4812 20.8662L30.631 21.0237L30.3862 21.1174H31.4984L33.4885 20.2256L33.7629 20.4683L31.6398 21.4175H28.702L28.7147 21.6665L31.1881 21.8347L33.7629 21.1345L33.9423 21.4067L32.1294 21.8984L33.3958 21.9836L35.3268 21.3452L35.5378 21.6069L33.4696 22.2944L29.2487 22.0093L29.2592 22.0391L28.7336 22.1072L28.7717 22.8457L29.4534 22.552L29.6433 22.8074L29.1368 23.02L30.0063 23.1287L31.2092 22.7498L31.4203 23.0159L30.1877 23.4053L30.2532 23.4714L28.8308 24.0269V24.0715L29.3141 24.1055L32.3573 22.7944L32.6233 23.0393L29.4575 24.3887L30.9117 24.3652L31.3232 24.1716H31.338L33.9486 22.9541L34.2314 23.1904L33.1425 23.7139L34.9976 23.8799L34.9089 24.1758L32.5874 23.9629L32.2117 24.1396L33.267 24.0928L33.2797 24.3928L31.5005 24.4673L31.0636 24.6802L28.8688 24.7122V24.825L28.9849 24.842L30.4917 24.7144L30.5381 25.01L29.4323 25.106L30.344 25.176L32.0682 24.5674L32.2961 24.825L30.4115 25.4954L28.892 25.3718L28.9025 25.5549L31.6187 25.6465L33.8748 24.5674L34.1639 24.8015L33.0411 25.3379L33.7693 25.6274L35.0819 24.6548L35.4492 24.8398L33.8536 26.0232L32.6254 25.5359L31.9774 25.8464L32.3995 25.7444L32.5642 26.021L30.4664 26.5403L28.949 26.4021L28.9637 26.6553L30.097 26.7937L32.8026 26.0615L35.0017 26.3276L37.2198 25.3379L37.4943 25.5784L35.0967 26.6426L32.8385 26.3679L30.1309 27.1001L28.9785 26.9597L28.9954 27.3044L29.5652 27.3748L31.5448 26.9851L31.6757 27.2705L30.5403 27.4832L31.5616 27.6089L31.9712 27.4343L31.8403 27.4641L31.701 27.1809L33.2902 26.8191L36.0718 27.1619L37.6842 26.4744L37.931 26.7212L37.0404 27.1023L37.8973 27.1321L37.853 27.4321L36.4517 27.3811V27.3513L36.152 27.479L33.3851 27.1384L33.4147 27.1704L33.1593 27.2788L33.8748 27.3044L33.8325 27.6045L32.5093 27.5557L31.6418 27.926L30.6353 27.8025L30.7386 27.9429L29.7635 28.2346L29.8396 28.2644L31.739 27.9473L31.8445 28.2261L31.9078 28.2048L32.1548 28.4602L30.6057 29.0007L30.8315 29.022L34.949 27.9324L36.6014 28.075L36.4517 28.3708L35.0165 28.2451L34.5291 28.375L36.1604 28.5879L35.9662 28.8794L33.7207 28.5984L30.9475 29.3286L32.0935 29.3625L34.28 28.7644L34.5607 29.022L34.3898 29.071L34.4805 29.1709L33.267 29.6987L34.5332 30.1948L34.3074 30.4565L32.8301 29.884L32.2434 30.1372L30.6099 30.1501L31.281 30.4268L33.6469 30.4075V30.7078L31.1608 30.729L30.728 30.5544L29.7762 30.1584H29.1431V30.2373L30.728 30.5544L30.5403 30.8396L29.16 30.563V30.8225L32.8575 31.3398L34.3707 30.98L34.6134 31.2483L32.8765 31.6611L29.1896 31.1418L29.2064 31.5122L30.9645 31.8911L30.7661 32.1719L29.2318 31.8335V31.9507L29.6813 32.0422L29.4913 32.3252L29.2487 32.2764V32.3315L29.6306 32.3486L29.5715 32.6211L30.7302 32.6465L34.624 31.7251L34.8646 31.9932L30.8188 32.9509L29.2782 32.9148L29.2887 33.1445L31.1881 33.1936L36.1899 31.8379L36.4644 32.0974L31.2831 33.5063L29.2845 33.4531L29.295 33.6895L31.5089 33.7874L34.4741 33.3872L38.3531 32.1506L38.6697 32.3975L34.702 33.6638L31.5364 34.0896L29.3204 33.9939V34.1086L34.1428 34.2024L37.3085 33.1787L37.6272 33.4233L34.299 34.5068L29.35 34.4089L29.3689 34.7749L30.1688 34.8452L33.6616 34.6941L37.0974 33.8596L37.338 34.1257L33.7904 34.9878L30.0928 35.1453L29.3773 35.0835L29.3879 35.2964L31.0573 35.4497L31.1165 35.3772L31.3126 35.4263L36.4221 34.575L37.6884 34.5984L40.7042 33.1382L41.1263 33.3511L37.9058 34.9175L36.4749 34.8899L35.5822 35.0388L37.7728 35.2986L41.8713 33.7981L42.2258 34.0342L37.8783 35.624L34.4847 35.2241L32.045 35.6326L33.1572 35.9158L34.6704 35.5688L34.7992 35.7817L38.598 36.2073L38.4481 36.501L34.4108 36.0413L34.472 35.9221L33.1193 36.2307L32.6401 36.1094L32.7161 36.3223H32.6655L33.7609 36.5884L35.6603 36.6372L35.6074 36.9373H35.3964L36.0295 37.1501L39.8748 36.4053L40.0374 36.6882L36.9454 37.2864L37.7433 37.5376L39.7524 37.3716L39.8073 37.6694L37.604 37.8503L36.2638 37.4248L36.2806 37.4099L35.9325 37.478L34.5248 36.9949L32.446 37.1692L34.624 37.6887L34.3517 37.9631L32.3109 37.4736L29.5167 37.8015L29.5336 38.176L30.4495 38.4995L32.2434 38.0737L34.2715 38.3569L34.1512 38.6484L32.2518 38.376L30.3862 38.8315L29.542 38.5315L29.5525 38.7571L30.1646 38.9082L29.981 39.1211L30.9877 38.9592L33.3894 39.2935L34.2167 39.0486L34.2821 38.9656L34.3876 38.9976L36.8083 38.2825L36.994 38.5527L34.9301 39.1636L35.8121 39.4338L37.7644 38.9231L37.9269 39.1997L36.6416 39.5361L37.2451 39.7681L38.7816 38.9976L39.0645 39.2317L37.2621 40.134L36.0929 39.6807L35.7826 39.7617L34.3687 39.3359L33.4315 39.6125L34.2335 39.7275L34.1111 40.019L33.1699 39.8828L33.2227 40.0618L30.479 40.4001L29.6349 40.3276L29.6497 40.6428L31.0699 40.8875L34.1111 40.1404L34.2653 40.4192L33.21 40.679L33.9824 40.8918L35.9388 40.0042L37.9374 40.2788L37.8213 40.5725L36.0527 40.3342L34.0479 41.2451L32.6254 40.8428V40.8301L32.1526 40.947L32.9968 41.3132L36.4305 41.6111L39.4062 40.7087L39.6786 40.9641L36.5128 41.9241L32.714 41.5962L31.6356 41.1343L31.8129 41.0259L31.0826 41.2068L29.6665 40.9683L29.6813 41.2983L30.4158 41.311H30.4812L32.4565 41.9495L32.1716 42.2114L30.9561 41.8113L31.0129 42.0942L30.7239 42.1218L30.9561 42.2498L30.2595 42.6519L32.2919 42.4624L32.9652 42.6265L32.9504 42.5583L35.96 42.2922L35.9873 42.4006L36.8442 42.6562L39.3937 42.0176L39.5751 42.29L36.7429 42.9902L35.5715 42.6392L35.599 42.6199L33.6616 42.8052L34.9279 43.1138L40.8962 42.771L40.9153 43.0796L34.7949 43.4309L32.1843 42.7925L29.7699 43.0051L29.7889 43.384L36.3313 43.4778L38.7985 43.8352L40.472 43.699L40.5291 43.9949L38.7267 44.1418L36.2449 43.7778L29.7974 43.6841V43.7288L36.0422 43.8608L38.5747 44.5376L41.2129 44.0396L41.3817 44.3206L39.2712 44.7207L40.4741 45.042L42.5044 44.4207L42.7745 44.676L41.2972 45.125L42.7472 45.6785L42.3842 45.9209L40.7358 45.2825L40.4594 45.3677L35.8628 44.1396L34.2251 44.1055L36.1456 44.4609L38.8005 45.738L38.389 45.9636L36.0253 44.876L35.8586 45.074L33.651 44.6377L29.981 45.0632L29.8522 45.0249L29.8628 45.2102L30.9349 45.5081L32.7773 45.0527L32.9673 45.3271L30.8969 45.8401L29.8796 45.5571V45.6421L30.6837 45.8892L33.9486 45.7485L37.0215 45.8296L36.9581 46.1296L33.9423 46.0488L31.5385 46.1531L32.2032 46.3657L36.1688 46.3276L36.6691 46.585L39.7059 46.7725L39.6025 47.0703L37.3444 46.9299L39.3303 47.9514L38.9082 48.1643L37.8678 47.6279L38.121 48.2664L37.5491 48.343L37.1122 47.2363L35.9093 46.6191L32.0176 46.6553L29.9071 46.0039L29.9324 46.5127L31.568 46.7126L32.465 47.3406L34.166 47.8066L36.4137 48.0388L36.2659 48.3325L33.9445 48.094L32.9968 47.8345L32.6844 47.9812L32.1357 47.6003L30.3925 47.1213L29.9705 47.1958L29.9916 47.6216L32.3531 48.4729L32.0492 48.7283L30.0105 47.9897C30.0105 47.9897 32.3193 52.502 34.4614 55.7368L34.465 55.7397C34.5884 55.8513 37.9591 58.8921 40.6388 57.7397C41.7114 57.2795 42.0896 56.8691 42.452 56.4758C42.6494 56.2617 42.842 56.0525 43.1396 55.8433C43.7032 55.4495 45.0665 54.792 46.1407 54.2959C46.4343 53.9011 46.7745 53.5437 47.1538 53.2319C47.3796 53.0466 47.5907 52.8572 47.8018 52.6636L47.827 52.6892L47.8713 52.6018C49.5597 51.0588 51.056 49.2263 51.8812 47.1108L51.9065 47.1384V47.1641L51.934 47.1108L51.9867 47.0554L52.0923 46.8958H52.2V46.8425H52.0923L51.9192 47.0171C51.9805 46.8533 52.0396 46.6873 52.0923 46.5212V46.7617L52.2 46.7341L52.145 46.6809V46.5212H52.0923L51.8812 46.8809C51.9487 46.6958 52.0205 46.5149 52.0923 46.3359V46.3594L52.145 46.4126L52.2252 46.2786L52.1493 46.2C52.278 45.8889 52.4087 45.5884 52.5372 45.2932ZM25.7009 30.1479L24.749 30.54L26.7097 30.1479H25.7009Z" fill="white"/>
</g>
</svg>
