<svg style="display:none" xmlns="http://www.w3.org/2000/svg">



  <symbol id="twitter" width="24" height="24" viewBox="0 0 24 24" fill="none" >
    <g>
    <path fill-rule="evenodd" clip-rule="evenodd" d="M14.8489 5.65799C14.3921 5.6578 13.9409 5.75904 13.5279 5.95441C13.115 6.14977 12.7506 6.43439 12.4609 6.78771C12.1713 7.14103 11.9638 7.55424 11.8533 7.99752C11.7428 8.44079 11.7321 8.90307 11.8219 9.35099C11.8529 9.50619 11.8465 9.66651 11.8035 9.81879C11.7604 9.97106 11.6817 10.1109 11.5741 10.2269C11.4664 10.3429 11.3327 10.4316 11.1841 10.4859C11.0354 10.5401 10.876 10.5583 10.7189 10.539C8.56867 10.2749 6.54166 9.39094 4.88494 7.99499C4.91594 8.59699 5.12494 9.23699 5.57794 9.90699L6.25694 10.911L5.14194 11.386L4.92694 11.478C5.08694 11.661 5.27894 11.848 5.49394 12.033C5.78135 12.279 6.08541 12.5049 6.40394 12.709L6.41494 12.716H6.41594L7.96394 13.655L6.34394 14.465C6.26394 14.505 6.18394 14.541 6.10394 14.573C6.45228 14.8624 6.83602 15.1064 7.24594 15.299L8.63594 15.956L7.47194 16.96C6.83694 17.508 6.19794 17.917 5.36894 18.133C6.64037 18.8102 8.05938 19.163 9.49994 19.16C14.3059 19.16 18.1759 15.325 18.1759 10.626V10.106L18.6009 9.80699C19.2649 9.34099 19.7339 8.71099 20.0699 7.98999H17.9099L17.6379 7.41999C17.3875 6.89266 16.9926 6.44719 16.4991 6.1353C16.0056 5.82342 15.4337 5.65791 14.8499 5.65799H14.8489ZM3.56894 12.958C3.47457 13.0661 3.40457 13.1932 3.36367 13.3307C3.32278 13.4682 3.31196 13.6129 3.33194 13.755C3.44494 14.556 3.92394 15.246 4.45394 15.773C4.59794 15.916 4.75194 16.053 4.91394 16.184L4.83894 16.204C4.35794 16.324 3.70894 16.349 2.62794 16.244C2.4238 16.224 2.21843 16.2672 2.03969 16.3678C1.86095 16.4684 1.71748 16.6216 1.62873 16.8065C1.53997 16.9915 1.51024 17.1992 1.54355 17.4016C1.57686 17.604 1.6716 17.7913 1.81494 17.938C2.81571 18.9609 4.01123 19.773 5.33096 20.3264C6.65069 20.8798 8.06789 21.1632 9.49894 21.16C15.2119 21.16 19.8979 16.724 20.1629 11.126C21.4529 10.043 22.0979 8.57599 22.4459 7.24299C22.4846 7.09504 22.4889 6.94019 22.4583 6.79034C22.4278 6.6405 22.3633 6.49965 22.2698 6.37863C22.1763 6.25762 22.0563 6.15965 21.9191 6.09228C21.7818 6.0249 21.6309 5.98991 21.4779 5.98999H19.1249C18.5494 5.09631 17.7083 4.40543 16.7198 4.01442C15.7314 3.62342 14.6453 3.55194 13.6141 3.81004C12.5829 4.06813 11.6585 4.64283 10.9708 5.45337C10.2831 6.26391 9.86664 7.26956 9.77994 8.32899C7.93659 7.84914 6.28727 6.8098 5.05894 5.35399C4.95016 5.22537 4.81065 5.12632 4.65336 5.06602C4.49607 5.00572 4.32609 4.98614 4.15921 5.00908C3.99233 5.03202 3.83395 5.09675 3.69876 5.19726C3.56358 5.29776 3.45598 5.43079 3.38594 5.58399C2.77994 6.90599 2.66394 8.42999 3.33994 9.97999L3.10594 10.08C2.88201 10.1754 2.70058 10.3492 2.59564 10.5688C2.49071 10.7885 2.46948 11.0388 2.53594 11.273C2.72194 11.925 3.13994 12.501 3.56794 12.958H3.56894Z" fill="#E5E5E5"/>
    </g>
  </symbol>


  <symbol id="facebook" width="24" height="24" viewBox="0 0 24 24" fill="none"> 
    <g>
    <path fill-rule="evenodd" clip-rule="evenodd" d="M2 6C2 4.93913 2.42143 3.92172 3.17157 3.17157C3.92172 2.42143 4.93913 2 6 2H18C19.0609 2 20.0783 2.42143 20.8284 3.17157C21.5786 3.92172 22 4.93913 22 6V18C22 19.0609 21.5786 20.0783 20.8284 20.8284C20.0783 21.5786 19.0609 22 18 22H6C4.93913 22 3.92172 21.5786 3.17157 20.8284C2.42143 20.0783 2 19.0609 2 18V6ZM6 4C5.46957 4 4.96086 4.21071 4.58579 4.58579C4.21071 4.96086 4 5.46957 4 6V18C4 18.5304 4.21071 19.0391 4.58579 19.4142C4.96086 19.7893 5.46957 20 6 20H12V13H11C10.7348 13 10.4804 12.8946 10.2929 12.7071C10.1054 12.5196 10 12.2652 10 12C10 11.7348 10.1054 11.4804 10.2929 11.2929C10.4804 11.1054 10.7348 11 11 11H12V9.5C12 8.57174 12.3687 7.6815 13.0251 7.02513C13.6815 6.36875 14.5717 6 15.5 6H16.1C16.3652 6 16.6196 6.10536 16.8071 6.29289C16.9946 6.48043 17.1 6.73478 17.1 7C17.1 7.26522 16.9946 7.51957 16.8071 7.70711C16.6196 7.89464 16.3652 8 16.1 8H15.5C15.303 8 15.108 8.0388 14.926 8.11418C14.744 8.18956 14.5786 8.30005 14.4393 8.43934C14.3001 8.57863 14.1896 8.74399 14.1142 8.92597C14.0388 9.10796 14 9.30302 14 9.5V11H16.1C16.3652 11 16.6196 11.1054 16.8071 11.2929C16.9946 11.4804 17.1 11.7348 17.1 12C17.1 12.2652 16.9946 12.5196 16.8071 12.7071C16.6196 12.8946 16.3652 13 16.1 13H14V20H18C18.5304 20 19.0391 19.7893 19.4142 19.4142C19.7893 19.0391 20 18.5304 20 18V6C20 5.46957 19.7893 4.96086 19.4142 4.58579C19.0391 4.21071 18.5304 4 18 4H6Z" fill="#E5E5E5"/>
    </g>
  </symbol>


  <symbol id="instagram" width="24" height="24" viewBox="0 0 24 24" fill="none"> 
    <g>
    <path fill-rule="evenodd" clip-rule="evenodd" d="M2 6C2 4.93913 2.42143 3.92172 3.17157 3.17157C3.92172 2.42143 4.93913 2 6 2H18C19.0609 2 20.0783 2.42143 20.8284 3.17157C21.5786 3.92172 22 4.93913 22 6V18C22 19.0609 21.5786 20.0783 20.8284 20.8284C20.0783 21.5786 19.0609 22 18 22H6C4.93913 22 3.92172 21.5786 3.17157 20.8284C2.42143 20.0783 2 19.0609 2 18V6ZM6 4C5.46957 4 4.96086 4.21071 4.58579 4.58579C4.21071 4.96086 4 5.46957 4 6V18C4 18.5304 4.21071 19.0391 4.58579 19.4142C4.96086 19.7893 5.46957 20 6 20H18C18.5304 20 19.0391 19.7893 19.4142 19.4142C19.7893 19.0391 20 18.5304 20 18V6C20 5.46957 19.7893 4.96086 19.4142 4.58579C19.0391 4.21071 18.5304 4 18 4H6ZM12 9C11.2044 9 10.4413 9.31607 9.87868 9.87868C9.31607 10.4413 9 11.2044 9 12C9 12.7956 9.31607 13.5587 9.87868 14.1213C10.4413 14.6839 11.2044 15 12 15C12.7956 15 13.5587 14.6839 14.1213 14.1213C14.6839 13.5587 15 12.7956 15 12C15 11.2044 14.6839 10.4413 14.1213 9.87868C13.5587 9.31607 12.7956 9 12 9ZM7 12C7 10.6739 7.52678 9.40215 8.46447 8.46447C9.40215 7.52678 10.6739 7 12 7C13.3261 7 14.5979 7.52678 15.5355 8.46447C16.4732 9.40215 17 10.6739 17 12C17 13.3261 16.4732 14.5979 15.5355 15.5355C14.5979 16.4732 13.3261 17 12 17C10.6739 17 9.40215 16.4732 8.46447 15.5355C7.52678 14.5979 7 13.3261 7 12ZM17.5 8C17.8978 8 18.2794 7.84196 18.5607 7.56066C18.842 7.27936 19 6.89782 19 6.5C19 6.10218 18.842 5.72064 18.5607 5.43934C18.2794 5.15804 17.8978 5 17.5 5C17.1022 5 16.7206 5.15804 16.4393 5.43934C16.158 5.72064 16 6.10218 16 6.5C16 6.89782 16.158 7.27936 16.4393 7.56066C16.7206 7.84196 17.1022 8 17.5 8Z" fill="#E5E5E5"/>
    </g>
  </symbol>



  <symbol id="youtube" width="24" height="24" viewBox="0 0 24 24" fill="none"> 
    <g>
    <path fill-rule="evenodd" clip-rule="evenodd" d="M7.84524 4.77499C10.4372 4.40799 13.5632 4.40799 16.1552 4.77499C18.5102 5.10899 20.3352 6.76099 20.6832 8.54099C21.1062 10.696 21.1062 13.304 20.6832 15.459C20.3342 17.239 18.5102 18.891 16.1552 19.225C13.5632 19.592 10.4362 19.592 7.84524 19.225C5.49024 18.891 3.66624 17.239 3.31724 15.459C2.89424 13.304 2.89424 10.696 3.31724 8.54099C3.66624 6.76099 5.49024 5.10899 7.84524 4.77499ZM16.4352 2.79499C13.6582 2.40199 10.3422 2.40199 7.56524 2.79499C4.55024 3.22199 1.90024 5.37299 1.35524 8.15699C0.882238 10.566 0.882238 13.434 1.35524 15.843C1.90024 18.627 4.55024 20.778 7.56524 21.205C10.3422 21.598 13.6582 21.598 16.4352 21.205C19.4502 20.778 22.1002 18.627 22.6452 15.843C23.1182 13.434 23.1182 10.566 22.6452 8.15699C22.1002 5.37299 19.4502 3.22199 16.4352 2.79499ZM10.5552 7.16799C10.4046 7.06752 10.2296 7.00981 10.0488 7.00102C9.86792 6.99224 9.6881 7.03271 9.52847 7.11812C9.36884 7.20353 9.23539 7.33067 9.14236 7.48599C9.04933 7.6413 9.00021 7.81895 9.00024 7.99999V16C9.00021 16.181 9.04933 16.3587 9.14236 16.514C9.23539 16.6693 9.36884 16.7965 9.52847 16.8819C9.6881 16.9673 9.86792 17.0077 10.0488 16.999C10.2296 16.9902 10.4046 16.9325 10.5552 16.832L16.5552 12.832C16.6922 12.7407 16.8045 12.617 16.8822 12.4718C16.9598 12.3267 17.0005 12.1646 17.0005 12C17.0005 11.8354 16.9598 11.6733 16.8822 11.5282C16.8045 11.383 16.6922 11.2593 16.5552 11.168L10.5552 7.16799ZM14.1972 12L11.0002 14.132V9.86899L14.1972 12Z" fill="#E5E5E5"/>
    </g>
  </symbol>



</svg>