<svg width="24" height="24" viewBox="0 0 24 24" fill="none" xmlns="http://www.w3.org/2000/svg">
<path fill-rule="evenodd" clip-rule="evenodd" d="M7.84524 4.77499C10.4372 4.40799 13.5632 4.40799 16.1552 4.77499C18.5102 5.10899 20.3352 6.76099 20.6832 8.54099C21.1062 10.696 21.1062 13.304 20.6832 15.459C20.3342 17.239 18.5102 18.891 16.1552 19.225C13.5632 19.592 10.4362 19.592 7.84524 19.225C5.49024 18.891 3.66624 17.239 3.31724 15.459C2.89424 13.304 2.89424 10.696 3.31724 8.54099C3.66624 6.76099 5.49024 5.10899 7.84524 4.77499ZM16.4352 2.79499C13.6582 2.40199 10.3422 2.40199 7.56524 2.79499C4.55024 3.22199 1.90024 5.37299 1.35524 8.15699C0.882238 10.566 0.882238 13.434 1.35524 15.843C1.90024 18.627 4.55024 20.778 7.56524 21.205C10.3422 21.598 13.6582 21.598 16.4352 21.205C19.4502 20.778 22.1002 18.627 22.6452 15.843C23.1182 13.434 23.1182 10.566 22.6452 8.15699C22.1002 5.37299 19.4502 3.22199 16.4352 2.79499ZM10.5552 7.16799C10.4046 7.06752 10.2296 7.00981 10.0488 7.00102C9.86792 6.99224 9.6881 7.03271 9.52847 7.11812C9.36884 7.20353 9.23539 7.33067 9.14236 7.48599C9.04933 7.6413 9.00021 7.81895 9.00024 7.99999V16C9.00021 16.181 9.04933 16.3587 9.14236 16.514C9.23539 16.6693 9.36884 16.7965 9.52847 16.8819C9.6881 16.9673 9.86792 17.0077 10.0488 16.999C10.2296 16.9902 10.4046 16.9325 10.5552 16.832L16.5552 12.832C16.6922 12.7407 16.8045 12.617 16.8822 12.4718C16.9598 12.3267 17.0005 12.1646 17.0005 12C17.0005 11.8354 16.9598 11.6733 16.8822 11.5282C16.8045 11.383 16.6922 11.2593 16.5552 11.168L10.5552 7.16799ZM14.1972 12L11.0002 14.132V9.86899L14.1972 12Z" fill="#E5E5E5"/>
</svg>
