<?xml version="1.0" standalone="no"?> <!DOCTYPE svg PUBLIC "-//W3C//DTD SVG 1.0//EN" "http://www.w3.org/TR/2001/REC-SVG-20010904/DTD/svg10.dtd" > <svg xmlns="http://www.w3.org/2000/svg" width="100%" height="100%">
<defs >
<font horiz-adv-x="610" ><font-face
    font-family="TT Lakes Neue Trial"
    units-per-em="1000"
    panose-1="2 11 0 0 4 0 0 8 2 7"
    ascent="1050"
    descent="-350"
    alphabetic="0" />
<missing-glyph horiz-adv-x="900" d="M100 0V284H145V145H178V284H228V315H100V441L119 380H142L176 486L209 380H232L286 550H254L220 440L185 550H166L131 440L100 543V700H800V550H690V380H800V289Q794 302 781 309T750 316Q723 316 707 302T690 267Q690 245
704 235T744 217Q761 212 769 208T778 194Q778 173 750 173Q736 173 729 180T722 198H689Q689 174 706 159T750 143Q767 143 780 149T800 163V0H100ZM311 380H344V442H368L403 380H440L400 447Q436 464 436 497Q436 519 420 534T379 550H311V380ZM469 550V380H502V550H469ZM580
519V380H612V519H662V550H530V519H580ZM344 473V519H379Q389 519 396 513T403 496Q403 484 396 479T379 473H344ZM800 483H722V519H800V483ZM800 411H722V452H800V411ZM365 143T387 167T410 229Q410 266 387 291T328 316Q292 316 269 291T246 229Q246 192 268 168T328
143Q365 143 387 167ZM614 143T633 162T652 209V315H620V209Q620 194 611 184T585 174Q568 174 559 184T549 209V315H517V209Q517 181 536 162T585 143Q614 143 633 162ZM800 224Q785 238 754 246Q738 251 731 255T724 267Q724 276 731 281T750 287Q760 287 768
280T776 262H800V224ZM306 174T292 190T277 229Q277 254 291 269T328 285Q352 285 365 270T379 229Q379 206 365 190T328 174Q306 174 292 190Z" />
<glyph unicode=" " glyph-name="space" horiz-adv-x="224" />
<glyph unicode="!" glyph-name="exclam" horiz-adv-x="308" d="M128 188Q115 188 115 201V687Q115 700 128 700H179Q193 700 193 687V201Q193 188 179 188H128ZM123 0Q110 0 110 13V82Q110 95 123 95H184Q198 95 198 82V13Q198 0 184 0H123Z" />
<glyph unicode="&quot;" glyph-name="quotedbl" horiz-adv-x="363" d="M78 455Q65 455 65 468V687Q65 700 78 700H122Q135 700 135 687V468Q135 455 122 455H78ZM241 455Q228 455 228 468V687Q228 700 241 700H285Q298 700 298 687V468Q298 455 285 455H241Z" />
<glyph unicode="#" glyph-name="numbersign" horiz-adv-x="693" d="M620 508Q633 508 633 494V455Q633 441 620 441H530L504 259H603Q616 259 616 246V206Q616 193 603 193H495L469 13Q468 0 453 0H410Q397 0 399 14L425 193H224L198 13Q197 0 182 0H139Q126 0
128 14L154 193H73Q60 193 60 206V246Q60 259 73 259H163L189 441H90Q77 441 77 455V494Q77 508 90 508H198L224 687Q225 700 240 700H283Q296 700 294 687L269 508H469L495 687Q496 700 511 700H554Q567 700 565 687L540 508H620ZM233 259H434L460 441H259L233
259Z" />
<glyph unicode="$" glyph-name="dollar" horiz-adv-x="678" d="M448 383Q532 383 570 345T609 221V156Q609 72 571 34T448 -5H383V-107Q383 -120 370 -120H319Q306 -120 306 -107V-5H240Q156 -5 118 33T79 156V204Q79 218 92 218H143Q156 218 156 204V154Q156
108 177 87T245 65H443Q489 65 510 86T531 154V224Q531 270 510 291T443 313H245Q161 313 123 351T84 474V544Q84 628 122 666T245 705H306V807Q306 820 319 820H370Q383 820 383 807V705H443Q527 705 565 667T604 544V496Q604 483 591 483H540Q526 483 526 496V546Q526
592 505 613T438 635H250Q204 635 183 614T161 546V471Q161 425 182 404T250 383H448Z" />
<glyph unicode="%" glyph-name="percent" horiz-adv-x="766" d="M161 370Q103 370 77 396T50 481V594Q50 653 76 679T161 705H217Q276 705 302 679T329 594V481Q329 423 303 397T217 370H161ZM191 0Q179 0 179 9Q179 13 182 19L516 688Q520 695 524 697T537 700H575Q587
700 587 691Q587 687 584 681L250 13Q246 6 242 3T229 0H191ZM209 433Q238 433 250 445T262 486V589Q262 618 250 630T209 643H170Q142 643 129 630T116 589V486Q116 457 128 445T170 433H209ZM549 -5Q490 -5 464 21T437 106V219Q437 277 463 303T549 330H605Q664
330 690 304T716 219V106Q716 48 690 22T605 -5H549ZM596 58Q625 58 637 70T650 111V214Q650 243 638 255T596 268H557Q529 268 517 255T504 214V111Q504 83 516 71T557 58H596Z" />
<glyph unicode="&amp;" glyph-name="ampersand" horiz-adv-x="688" d="M219 -5Q143 -5 107 31T70 144V279Q70 355 106 391T219 428H278V433L129 619Q120 631 120 644V687Q120 700 133 700H534Q548 700 548 687V643Q548 630 534 630H217V625L459 318H464V414Q464
428 477 428H524Q538 428 538 414V222L699 19Q703 14 703 9Q703 0 691 0H634Q621 0 611 11L529 117H525L524 103Q519 49 488 22T388 -5H219ZM377 65Q422 65 441 83T460 148V203L336 358H230Q185 358 167 339T148 275V148Q148 102 166 84T230 65H377Z" />
<glyph unicode="&apos;" glyph-name="quotesingle" horiz-adv-x="200" d="M78 455Q65 455 65 468V687Q65 700 78 700H122Q135 700 135 687V468Q135 455 122 455H78Z" />
<glyph unicode="(" glyph-name="parenleft" horiz-adv-x="356" d="M271 -165Q190 -165 148 -123T105 1V569Q105 651 147 693T271 735H328Q341 735 341 722V682Q341 669 328 669H274Q227 669 203 645T179 574V-4Q179 -51 203 -75T274 -99H328Q341 -99 341 -112V-152Q341
-165 328 -165H271Z" />
<glyph unicode=")" glyph-name="parenright" horiz-adv-x="356" d="M28 -165Q15 -165 15 -152V-112Q15 -99 28 -99H83Q130 -99 154 -75T178 -4V574Q178 621 154 645T83 669H28Q15 669 15 682V722Q15 735 28 735H85Q167 735 209 693T251 569V1Q251 -81 209 -123T85
-165H28Z" />
<glyph unicode="*" glyph-name="asterisk" horiz-adv-x="405" d="M91 418Q83 424 83 428Q83 429 87 437L143 521V526H58Q45 526 45 540V572Q45 585 58 585H171V687Q171 700 185 700H221Q234 700 234 687V585H347Q360 585 360 572V540Q360 526 347 526H262V521L318
437Q322 432 322 428Q322 422 315 418L287 398Q281 396 280 396Q273 396 269 403L205 500H200L136 403Q129 392 119 398L91 418Z" />
<glyph unicode="+" glyph-name="plus" horiz-adv-x="633" d="M496 398Q509 398 509 384V341Q509 328 496 328H352V183Q352 170 339 170H295Q282 170 282 183V328H138Q124 328 124 341V384Q124 398 138 398H282V542Q282 555 295 555H339Q352 555 352 542V398H496Z" />
<glyph unicode="," glyph-name="comma" horiz-adv-x="199" d="M134 96Q148 96 148 83V10Q148 1 144 -7L95 -138Q90 -151 80 -151H57Q49 -151 45 -148T43 -138L97 0H65Q51 0 51 13V83Q51 96 65 96H134Z" />
<glyph unicode="-" glyph-name="hyphen" horiz-adv-x="435" d="M68 264Q55 264 55 277V324Q55 338 68 338H367Q380 338 380 324V277Q380 264 367 264H68Z" />
<glyph unicode="." glyph-name="period" horiz-adv-x="199" d="M65 0Q51 0 51 13V83Q51 96 65 96H134Q148 96 148 83V13Q148 0 134 0H65Z" />
<glyph unicode="/" glyph-name="slash" horiz-adv-x="370" d="M19 -100Q5 -100 5 -88Q5 -85 7 -79L295 787Q298 795 302 797T314 800H351Q365 800 365 788Q365 785 363 779L75 -87Q73 -94 69 -97T56 -100H19Z" />
<glyph unicode="0" glyph-name="zero" horiz-adv-x="735" d="M260 -5Q178 -5 136 37T94 161V539Q94 621 136 663T260 705H475Q557 705 599 663T641 539V161Q641 80 599 38T475 -5H260ZM469 65Q516 65 540 89T564 160V540Q564 587 540 611T469 635H266Q219 635
195 611T171 540V160Q171 114 195 90T266 65H469ZM330 304Q316 304 316 317V393Q316 406 330 406H406Q419 406 419 393V317Q419 304 406 304H330Z" />
<glyph unicode="1" glyph-name="one" horiz-adv-x="473" d="M444 70Q458 70 458 57V13Q458 0 444 0H58Q45 0 45 13V57Q45 70 58 70H215V630H83Q70 630 70 643V687Q70 700 83 700H279Q293 700 293 687V70H444Z" />
<glyph unicode="2" glyph-name="two" horiz-adv-x="651" d="M90 0Q76 0 76 13V199Q76 283 114 321T238 360H410Q456 360 477 381T499 449V546Q499 592 478 613T410 635H253Q207 635 186 614T164 546V503Q164 490 151 490H100Q86 490 86 503V544Q86 628 124 666T248
705H415Q500 705 538 667T576 544V451Q576 367 538 329T415 290H243Q197 290 176 269T154 201V70H573Q586 70 586 57V13Q586 0 573 0H90Z" />
<glyph unicode="3" glyph-name="three" horiz-adv-x="639" d="M221 -5Q137 -5 99 33T60 156V197Q60 210 73 210H124Q138 210 138 197V154Q138 108 159 87T226 65H388Q434 65 455 86T476 154V251Q476 297 455 318T388 340H182Q169 340 169 353V396Q169 404 171
409T180 419L438 626V630H98Q85 630 85 643V687Q85 700 98 700H533Q546 700 546 687V644Q546 636 544 631T535 621L277 415V410H393Q477 410 515 372T554 249V156Q554 72 516 34T393 -5H221Z" />
<glyph unicode="4" glyph-name="four" horiz-adv-x="628" d="M594 251Q608 251 608 238V191Q608 178 594 178H494V13Q494 0 481 0H430Q416 0 416 13V178H66Q53 178 53 191V237Q53 254 58 265L240 687Q244 700 259 700H309Q321 700 321 690Q321 684 319 680L135
251H416V497Q416 510 430 510H481Q494 510 494 497V251H594Z" />
<glyph unicode="5" glyph-name="five" horiz-adv-x="671" d="M259 -5Q174 -5 136 33T98 156V184Q98 198 111 198H162Q175 198 175 184V154Q175 108 196 87T264 65H426Q472 65 493 86T515 154V269Q515 315 494 336T426 358H261Q232 358 215 348T190 322Q187 314
183 311T170 308H121Q108 308 108 321V687Q108 700 121 700H542Q555 700 555 687V643Q555 630 542 630H185V388H190Q201 406 225 417T288 428H431Q516 428 554 390T593 266V156Q593 72 555 34T431 -5H259Z" />
<glyph unicode="6" glyph-name="six" horiz-adv-x="685" d="M255 -5Q171 -5 133 33T94 156V544Q94 628 132 666T255 705H428Q512 705 550 667T589 544V506Q589 493 576 493H525Q511 493 511 506V546Q511 592 490 613T423 635H260Q214 635 193 614T171 546V358H176Q187
376 211 387T274 398H443Q527 398 565 360T604 236V156Q604 72 566 34T443 -5H255ZM438 65Q484 65 505 86T526 154V239Q526 285 505 306T438 328H256Q171 328 171 244V154Q171 108 192 87T260 65H438Z" />
<glyph unicode="7" glyph-name="seven" horiz-adv-x="574" d="M194 0Q182 0 182 10Q182 16 184 20L443 626H121V528Q121 515 108 515H57Q44 515 44 528V687Q44 700 57 700H516Q529 700 529 687V641Q529 628 524 613L267 13Q264 6 260 3T247 0H194Z" />
<glyph unicode="8" glyph-name="eight" horiz-adv-x="714" d="M241 -5Q157 -5 119 33T80 156V244Q80 302 102 333T160 373V378Q134 388 117 417T100 494V563Q100 633 137 669T247 705H467Q540 705 577 669T614 563V494Q614 446 597 417T554 378V373Q590 365 612
334T634 244V156Q634 72 596 34T473 -5H241ZM448 398Q494 398 515 419T536 486V553Q536 593 515 614T454 635H260Q220 635 199 614T178 553V486Q178 440 199 419T266 398H448ZM468 65Q514 65 535 86T556 154V239Q556 285 535 306T469 328H245Q200 328 179 307T158
239V154Q158 108 179 87T246 65H468Z" />
<glyph unicode="9" glyph-name="nine" horiz-adv-x="685" d="M248 -5Q163 -5 125 33T86 156V194Q86 208 100 208H151Q164 208 164 194V154Q164 108 185 87T253 65H425Q471 65 492 86T514 154V338H509Q486 298 411 298H243Q158 298 120 336T81 459V544Q81 628 119
666T243 705H430Q515 705 553 667T591 544V156Q591 72 553 34T430 -5H248ZM429 368Q472 368 493 388T514 451V546Q514 592 493 613T425 635H248Q202 635 181 614T159 546V456Q159 410 180 389T248 368H429Z" />
<glyph unicode=":" glyph-name="colon" horiz-adv-x="199" d="M65 409Q51 409 51 422V492Q51 505 65 505H134Q148 505 148 492V422Q148 409 134 409H65ZM65 0Q51 0 51 13V83Q51 96 65 96H134Q148 96 148 83V13Q148 0 134 0H65Z" />
<glyph unicode=";" glyph-name="semicolon" horiz-adv-x="199" d="M134 505Q148 505 148 492V422Q148 409 134 409H65Q51 409 51 422V492Q51 505 65 505H134ZM134 96Q148 96 148 83V10Q148 1 144 -7L95 -138Q90 -151 80 -151H57Q49 -151 45 -148T43 -138L97 0H65Q51
0 51 13V83Q51 96 65 96H134Z" />
<glyph unicode="&lt;" glyph-name="less" horiz-adv-x="633" d="M125 321Q118 324 115 328T112 341V385Q112 400 125 404L505 569Q509 571 512 571Q522 571 522 555V519Q522 511 519 507T509 499L197 365V360L509 226Q522 222 522 207V168Q522 155 512 155Q508
155 503 158L125 321Z" />
<glyph unicode="=" glyph-name="equal" horiz-adv-x="633" d="M143 410Q129 410 129 423V467Q129 480 143 480H491Q504 480 504 467V423Q504 410 491 410H143ZM143 235Q129 235 129 248V292Q129 305 143 305H491Q504 305 504 292V248Q504 235 491 235H143Z" />
<glyph unicode="&gt;" glyph-name="greater" horiz-adv-x="633" d="M129 157Q123 155 122 155Q112 155 112 171V207Q112 215 115 219T125 227L437 361V366L125 500Q112 504 112 519V558Q112 571 122 571Q127 571 131 568L509 405Q516 402 519 398T522 385V341Q522
326 509 322L129 157Z" />
<glyph unicode="?" glyph-name="question" horiz-adv-x="613" d="M256 188Q243 188 243 201V364Q243 378 256 378H376Q422 378 443 399T465 466V546Q465 593 444 614T376 635H211Q165 635 144 614T123 546V506Q123 493 109 493H58Q45 493 45 506V544Q45 628 83
666T206 705H381Q466 705 504 667T543 544V469Q543 384 505 346T381 308H320V201Q320 188 307 188H256ZM251 0Q238 0 238 13V82Q238 95 251 95H312Q325 95 325 82V13Q325 0 312 0H251Z" />
<glyph unicode="@" glyph-name="at" horiz-adv-x="935" d="M263 -170Q168 -170 129 -132T90 0V428Q90 516 129 553T263 590H673Q767 590 806 552T845 420V135Q845 64 817 35T729 5H696Q621 5 597 60H592Q563 5 488 5H425Q357 5 324 38T290 140V275Q290 343 323
376T425 410H622Q635 410 635 397V128Q635 68 689 68H721Q775 68 775 128V430Q775 478 750 503T678 528H258Q210 528 185 503T160 430V-10Q160 -58 185 -83T258 -108H544Q558 -108 558 -121V-157Q558 -170 544 -170H263ZM488 68Q529 68 547 86T565 145V348H438Q397
348 379 330T360 270V145Q360 104 378 86T438 68H488Z" />
<glyph unicode="A" glyph-name="A" horiz-adv-x="680" d="M642 20Q643 17 643 11Q643 0 631 0H582Q567 0 563 13L519 175H161L117 13Q113 0 98 0H49Q37 0 37 11Q37 17 38 20L229 687Q233 700 248 700H432Q447 700 451 687L642 20ZM396 623H284L210 352L181 245H499L470
352L396 623Z" />
<glyph unicode="B" glyph-name="B" horiz-adv-x="715" d="M578 373Q612 366 630 337T648 260V161Q648 77 610 39T486 0H118Q105 0 105 13V687Q105 700 118 700H478Q555 700 591 664T628 553V494Q628 402 578 378V373ZM183 630V398H461Q507 398 528 419T550 486V545Q550
588 530 609T467 630H183ZM570 239Q570 285 549 306T482 328H183V70H481Q527 70 548 91T570 159V239Z" />
<glyph unicode="C" glyph-name="C" horiz-adv-x="720" d="M260 -5Q178 -5 136 37T94 161V539Q94 621 136 663T260 705H470Q552 705 594 663T636 539V496Q636 483 623 483H572Q559 483 559 496V540Q559 587 535 611T464 635H266Q219 635 195 611T171 540V160Q171
114 195 90T266 65H464Q511 65 535 89T559 160V204Q559 218 572 218H623Q636 218 636 204V161Q636 80 594 38T470 -5H260Z" />
<glyph unicode="D" glyph-name="D" horiz-adv-x="746" d="M118 0Q105 0 105 13V687Q105 700 118 700H486Q568 700 610 658T653 534V166Q653 85 611 43T486 0H118ZM480 70Q527 70 551 94T575 165V535Q575 630 480 630H183V70H480Z" />
<glyph unicode="E" glyph-name="E" horiz-adv-x="643" d="M563 70Q576 70 576 57V13Q576 0 563 0H118Q105 0 105 13V687Q105 700 118 700H553Q566 700 566 687V643Q566 630 553 630H183V388H523Q536 388 536 374V331Q536 318 523 318H183V70H563Z" />
<glyph unicode="F" glyph-name="F" horiz-adv-x="598" d="M543 700Q556 700 556 687V643Q556 630 543 630H183V383H508Q521 383 521 369V326Q521 313 508 313H183V13Q183 0 169 0H118Q105 0 105 13V687Q105 700 118 700H543Z" />
<glyph unicode="G" glyph-name="G" horiz-adv-x="735" d="M260 -5Q178 -5 136 37T94 161V539Q94 621 136 663T260 705H480Q562 705 604 663T646 539V496Q646 483 633 483H582Q569 483 569 496V540Q569 587 545 611T474 635H266Q219 635 195 611T171 540V160Q171
114 195 90T266 65H479Q526 65 550 89T574 160V285H361Q348 285 348 298V342Q348 355 361 355H638Q651 355 651 342V161Q651 80 609 38T485 -5H260Z" />
<glyph unicode="H" glyph-name="H" horiz-adv-x="750" d="M632 700Q645 700 645 687V13Q645 0 632 0H581Q568 0 568 13V318H183V13Q183 0 169 0H118Q105 0 105 13V687Q105 700 118 700H169Q183 700 183 687V391H568V687Q568 700 581 700H632Z" />
<glyph unicode="I" glyph-name="I" horiz-adv-x="515" d="M296 630V70H441Q454 70 454 57V13Q454 0 441 0H75Q61 0 61 13V57Q61 70 75 70H219V630H75Q61 630 61 643V687Q61 700 75 700H441Q454 700 454 687V643Q454 630 441 630H296Z" />
<glyph unicode="J" glyph-name="J" horiz-adv-x="650" d="M236 -5Q155 -5 113 37T70 161V264Q70 278 83 278H134Q148 278 148 264V160Q148 113 172 89T243 65H378Q425 65 449 89T473 160V630H163Q150 630 150 643V687Q150 700 163 700H537Q550 700 550 687V161Q550
80 508 38T384 -5H236Z" />
<glyph unicode="K" glyph-name="K" horiz-adv-x="633" d="M595 22Q600 17 600 11Q600 0 583 0H527Q508 0 495 13L183 342V13Q183 0 169 0H118Q105 0 105 13V687Q105 700 118 700H169Q183 700 183 687V373L496 688Q503 695 509 697T526 700H579Q586 700 590 697T595
690Q595 684 590 679L274 360L595 22Z" />
<glyph unicode="L" glyph-name="L" horiz-adv-x="578" d="M118 0Q105 0 105 13V687Q105 700 118 700H169Q183 700 183 687V74H539Q553 74 553 61V13Q553 0 539 0H118Z" />
<glyph unicode="M" glyph-name="M" horiz-adv-x="891" d="M113 0Q100 0 100 13V687Q100 700 113 700H170Q177 700 181 697T191 687L443 338H449L700 687Q705 694 709 697T721 700H777Q791 700 791 687V13Q791 0 777 0H726Q713 0 713 13V572H708L485 263Q474 250
462 250H429Q416 250 406 263L183 572H178V13Q178 0 164 0H113Z" />
<glyph unicode="N" glyph-name="N" horiz-adv-x="751" d="M113 0Q100 0 100 13V687Q100 700 113 700H171Q179 700 183 698T193 688L570 127H575V687Q575 700 589 700H638Q651 700 651 687V13Q651 0 638 0H581Q573 0 568 2T558 13L182 573H176V13Q176 0 163 0H113Z" />
<glyph unicode="O" glyph-name="O" horiz-adv-x="755" d="M260 -5Q178 -5 136 37T94 161V539Q94 621 136 663T260 705H495Q577 705 619 663T661 539V161Q661 80 619 38T495 -5H260ZM489 65Q536 65 560 89T584 160V540Q584 587 560 611T489 635H266Q219 635 195
611T171 540V160Q171 114 195 90T266 65H489Z" />
<glyph unicode="P" glyph-name="P" horiz-adv-x="660" d="M461 700Q546 700 584 662T623 539V501Q623 417 585 379T461 340H183V13Q183 0 169 0H118Q105 0 105 13V687Q105 700 118 700H461ZM545 541Q545 588 524 609T456 630H183V410H456Q502 410 523 431T545 499V541Z" />
<glyph unicode="Q" glyph-name="Q" horiz-adv-x="755" d="M495 705Q577 705 619 663T661 539V161Q661 80 619 38T495 -5H422L495 -148Q498 -154 498 -159Q498 -170 486 -170H438Q426 -170 420 -157L343 -5H260Q178 -5 136 37T94 161V539Q94 621 136 663T260 705H495ZM584
540Q584 587 560 611T489 635H266Q219 635 195 611T171 540V160Q171 114 195 90T266 65H489Q536 65 560 89T584 160V540Z" />
<glyph unicode="R" glyph-name="R" horiz-adv-x="683" d="M325 350V344L611 21Q616 14 616 10Q616 0 603 0H545Q532 0 521 11L220 350H183V13Q183 0 169 0H118Q105 0 105 13V687Q105 700 118 700H461Q546 700 584 662T623 539V511Q623 427 585 389T461 350H325ZM183
630V420H456Q502 420 523 441T545 509V541Q545 588 524 609T456 630H183Z" />
<glyph unicode="S" glyph-name="S" horiz-adv-x="678" d="M240 -5Q156 -5 118 33T79 156V204Q79 218 92 218H143Q156 218 156 204V154Q156 108 177 87T245 65H443Q489 65 510 86T531 154V224Q531 270 510 291T443 313H245Q161 313 123 351T84 474V544Q84 628 122
666T245 705H443Q527 705 565 667T604 544V496Q604 483 591 483H540Q526 483 526 496V546Q526 592 505 613T438 635H250Q204 635 183 614T161 546V471Q161 425 182 404T250 383H448Q532 383 570 345T609 221V156Q609 72 571 34T448 -5H240Z" />
<glyph unicode="T" glyph-name="T" horiz-adv-x="598" d="M567 700Q580 700 580 687V640Q580 626 567 626H338V13Q338 0 324 0H273Q260 0 260 13V626H31Q18 626 18 640V687Q18 700 31 700H567Z" />
<glyph unicode="U" glyph-name="U" horiz-adv-x="735" d="M266 -5Q185 -5 143 37T100 161V687Q100 700 113 700H164Q178 700 178 687V164Q178 69 273 69H463Q510 69 534 93T558 164V687Q558 700 571 700H622Q635 700 635 687V161Q635 80 593 38T469 -5H266Z" />
<glyph unicode="V" glyph-name="V" horiz-adv-x="628" d="M287 0Q273 0 268 13L11 682Q9 688 9 690Q9 700 25 700H71Q79 700 83 697T90 687L312 103H317L539 687Q543 700 558 700H607Q620 700 620 689L618 681L361 13Q356 0 343 0H287Z" />
<glyph unicode="W" glyph-name="W" horiz-adv-x="931" d="M231 0Q223 0 219 3T213 14L29 683Q28 685 28 689Q28 700 45 700H86Q95 700 99 698T105 687L262 109H267L424 687Q426 695 430 697T442 700H490Q498 700 502 698T508 687L665 109H670L827 687Q829 695
833 697T845 700H890Q908 700 903 680L719 14Q717 6 713 3T701 0H637Q628 0 624 3T618 14L468 566H463L313 14Q310 0 295 0H231Z" />
<glyph unicode="X" glyph-name="X" d="M44 0Q37 0 34 3T30 11Q30 16 33 20L261 358L44 680Q40 684 40 690Q40 700 53 700H104Q112 700 116 698T126 689L303 424H307L484 689Q489 695 493 697T506 700H556Q570 700 570 689Q570 685 567 680L349 358L576 20Q580
16 580 10Q580 0 567 0H516Q508 0 504 2T494 12L371 195L307 291H303L117 12Q113 5 108 3T94 0H44Z" />
<glyph unicode="Y" glyph-name="Y" horiz-adv-x="605" d="M277 0Q264 0 264 13V293L9 680Q6 685 6 689Q6 694 9 697T19 700H68Q76 700 80 698T90 688L236 466L300 368H305L369 466L515 688Q520 695 524 697T537 700H585Q591 700 595 697T599 689Q599 685 596 680L341
293V13Q341 0 328 0H277Z" />
<glyph unicode="Z" glyph-name="Z" horiz-adv-x="588" d="M61 0Q48 0 48 13V56Q48 65 49 70T56 82L451 625V630H76Q63 630 63 643V687Q63 700 76 700H529Q543 700 543 687V644Q543 630 534 618L139 75V70H539Q553 70 553 57V13Q553 0 539 0H61Z" />
<glyph unicode="[" glyph-name="bracketleft" horiz-adv-x="336" d="M118 -165Q105 -165 105 -152V722Q105 735 118 735H308Q321 735 321 722V682Q321 669 308 669H179V-99H308Q321 -99 321 -112V-152Q321 -165 308 -165H118Z" />
<glyph unicode="\" glyph-name="backslash" horiz-adv-x="370" d="M314 -100Q306 -100 302 -98T295 -87L6 781Q5 783 5 787Q5 800 22 800H56Q64 800 68 797T75 787L364 -81Q365 -83 365 -88Q365 -100 349 -100H314Z" />
<glyph unicode="]" glyph-name="bracketright" horiz-adv-x="336" d="M28 -165Q15 -165 15 -152V-112Q15 -99 28 -99H158V669H28Q15 669 15 682V722Q15 735 28 735H218Q231 735 231 722V-152Q231 -165 218 -165H28Z" />
<glyph unicode="^" glyph-name="asciicircum" horiz-adv-x="463" d="M47 420Q35 420 35 429Q35 431 39 439L187 688Q194 700 208 700H255Q269 700 276 688L425 437Q428 433 428 429Q428 420 414 420H370Q356 420 349 433L234 627H229L114 433Q109 425 105 423T92 420H47Z" />
<glyph unicode="_" glyph-name="underscore" horiz-adv-x="335" d="M-2 -185Q-15 -185 -15 -172V-132Q-15 -119 -2 -119H337Q350 -119 350 -132V-172Q350 -185 337 -185H-2Z" />
<glyph unicode="`" glyph-name="grave" horiz-adv-x="218" d="M134 556Q126 556 122 559T113 569L33 700Q30 705 30 708Q30 716 44 716H84Q98 716 105 704L185 573Q188 569 188 565Q188 561 185 559T174 556H134Z" />
<glyph unicode="a" glyph-name="a" horiz-adv-x="570" d="M339 510Q415 510 451 474T488 361V13Q488 0 474 0H427Q414 0 414 13V48H409Q397 26 369 11T300 -5H195Q135 -5 104 26T73 118V159Q73 219 104 250T195 281H414V361Q414 407 396 425T331 444H231Q191 444
174 427T156 369V353Q156 340 143 340H96Q83 340 83 353V372Q83 443 117 476T228 510H339ZM331 61Q377 61 395 80T414 144V215H208Q175 215 161 201T146 154V123Q146 90 160 76T208 61H331Z" />
<glyph unicode="b" glyph-name="b" horiz-adv-x="570" d="M101 0Q88 0 88 13V687Q88 700 101 700H148Q161 700 161 687V458H166Q177 479 205 494T275 510H349Q425 510 461 474T498 361V149Q498 73 462 37T349 0H101ZM341 66Q387 66 405 85T424 149V361Q424 407
406 425T341 444H244Q199 444 180 426T161 361V66H341Z" />
<glyph unicode="c" glyph-name="c" horiz-adv-x="548" d="M221 -5Q145 -5 109 31T73 144V361Q73 437 109 473T221 510H331Q408 510 444 474T480 361V336Q480 323 467 323H420Q406 323 406 336V361Q406 407 388 425T324 444H229Q184 444 165 426T146 361V144Q146
99 165 80T229 61H324Q369 61 387 80T406 144V169Q406 183 420 183H467Q480 183 480 169V144Q480 68 444 32T331 -5H221Z" />
<glyph unicode="d" glyph-name="d" horiz-adv-x="570" d="M221 -5Q145 -5 109 31T73 144V356Q73 432 109 468T221 505H409V687Q409 700 422 700H469Q483 700 483 687V13Q483 0 469 0H422Q409 0 409 13V48H404Q393 26 365 11T295 -5H221ZM326 61Q372 61 390 80T409
144V439H229Q184 439 165 421T146 356V144Q146 99 165 80T229 61H326Z" />
<glyph unicode="e" glyph-name="e" horiz-adv-x="558" d="M341 510Q418 510 454 474T490 361V243Q490 230 477 230H146V144Q146 99 165 80T229 61H340Q376 61 393 78T411 133V154Q411 168 425 168H472Q485 168 485 154V133Q485 62 450 29T340 -5H221Q145 -5 109
31T73 144V361Q73 437 109 473T221 510H341ZM416 296V361Q416 407 398 425T334 444H229Q184 444 165 426T146 361V296H416Z" />
<glyph unicode="f" glyph-name="f" horiz-adv-x="371" d="M289 639Q244 639 225 621T206 556V505H338Q351 505 351 492V452Q351 439 338 439H206V13Q206 0 193 0H146Q133 0 133 13V439H58Q45 439 45 452V492Q45 505 58 505H133V556Q133 632 169 668T281 705H338Q351
705 351 692V652Q351 639 338 639H289Z" />
<glyph unicode="g" glyph-name="g" horiz-adv-x="570" d="M228 -195Q152 -195 118 -162T83 -58V-36Q83 -23 96 -23H143Q156 -23 156 -36V-58Q156 -95 173 -112T231 -129H326Q372 -129 390 -111T409 -46V83H404Q392 61 364 46T295 30H221Q145 30 109 66T73 179V356Q73
432 109 468T221 505H469Q483 505 483 492V-46Q483 -122 447 -158T334 -195H228ZM326 96Q372 96 390 115T409 179V439H229Q184 439 165 421T146 356V179Q146 134 165 115T229 96H326Z" />
<glyph unicode="h" glyph-name="h" horiz-adv-x="580" d="M101 0Q88 0 88 13V687Q88 700 101 700H148Q161 700 161 687V458H166Q178 480 206 495T275 510H349Q425 510 461 474T498 361V13Q498 0 484 0H437Q424 0 424 13V358Q424 403 406 421T341 440H244Q199 440
180 422T161 358V13Q161 0 148 0H101Z" />
<glyph unicode="i" glyph-name="i" horiz-adv-x="249" d="M101 0Q88 0 88 13V492Q88 505 101 505H148Q161 505 161 492V13Q161 0 148 0H101ZM96 564Q83 564 83 578V632Q83 645 96 645H154Q167 645 167 632V578Q167 564 154 564H96Z" />
<glyph unicode="j" glyph-name="j" horiz-adv-x="249" d="M-64 -195Q-78 -195 -78 -182V-142Q-78 -129 -64 -129H5Q50 -129 69 -111T88 -46V492Q88 505 101 505H148Q161 505 161 492V-46Q161 -122 125 -158T13 -195H-64ZM96 564Q83 564 83 578V632Q83 645 96 645H154Q167
645 167 632V578Q167 564 154 564H96Z" />
<glyph unicode="k" glyph-name="k" horiz-adv-x="494" d="M470 18Q474 14 474 10Q474 6 470 3T461 0H407Q399 0 395 2T384 11L161 245V13Q161 0 148 0H101Q88 0 88 13V687Q88 700 101 700H148Q161 700 161 687V270L382 492Q389 499 393 501T406 504H455Q461 504
465 501T469 494Q469 490 465 486L242 260L470 18Z" />
<glyph unicode="l" glyph-name="l" horiz-adv-x="249" d="M101 0Q88 0 88 13V687Q88 700 101 700H148Q161 700 161 687V13Q161 0 148 0H101Z" />
<glyph unicode="m" glyph-name="m" horiz-adv-x="856" d="M101 0Q88 0 88 13V492Q88 505 101 505H148Q161 505 161 492V458H166Q178 480 205 495T275 510H331Q419 510 450 454H455Q466 478 497 494T577 510H625Q701 510 737 474T774 361V13Q774 0 761 0H713Q700
0 700 13V361Q700 407 682 425T618 444H550Q505 444 487 426T468 361V13Q468 0 454 0H407Q394 0 394 13V361Q394 407 376 425T311 444H244Q199 444 180 426T161 361V13Q161 0 148 0H101Z" />
<glyph unicode="n" glyph-name="n" horiz-adv-x="580" d="M101 0Q88 0 88 13V492Q88 505 101 505H148Q161 505 161 492V458H166Q178 480 206 495T275 510H349Q425 510 461 474T498 361V13Q498 0 484 0H437Q424 0 424 13V358Q424 403 406 421T341 440H244Q199 440
180 422T161 358V13Q161 0 148 0H101Z" />
<glyph unicode="o" glyph-name="o" horiz-adv-x="575" d="M221 -5Q145 -5 109 31T73 144V361Q73 437 109 473T221 510H354Q430 510 466 474T503 361V144Q503 68 467 32T354 -5H221ZM346 61Q392 61 410 80T429 144V361Q429 407 411 425T346 444H229Q184 444 165
426T146 361V144Q146 99 165 80T229 61H346Z" />
<glyph unicode="p" glyph-name="p" horiz-adv-x="570" d="M101 -190Q88 -190 88 -177V492Q88 505 101 505H148Q161 505 161 492V458H166Q178 480 205 495T275 510H349Q425 510 461 474T498 361V149Q498 73 462 37T349 0H161V-177Q161 -190 148 -190H101ZM341 66Q387
66 405 85T424 149V361Q424 407 406 425T341 444H244Q199 444 180 426T161 361V66H341Z" />
<glyph unicode="q" glyph-name="q" horiz-adv-x="570" d="M422 -190Q409 -190 409 -177V48H404Q392 26 364 11T295 -5H221Q145 -5 109 31T73 144V356Q73 432 109 468T221 505H469Q483 505 483 492V-177Q483 -190 469 -190H422ZM326 61Q372 61 390 80T409 144V439H229Q184
439 165 421T146 356V144Q146 99 165 80T229 61H326Z" />
<glyph unicode="r" glyph-name="r" horiz-adv-x="399" d="M101 0Q88 0 88 13V492Q88 505 101 505H148Q161 505 161 492V458H166Q178 480 206 495T275 510H369Q383 510 383 497V450Q383 436 369 436H244Q199 436 180 418T161 354V13Q161 0 148 0H101Z" />
<glyph unicode="s" glyph-name="s" horiz-adv-x="530" d="M201 -5Q131 -5 98 27T64 125V154Q64 168 77 168H124Q138 168 138 154V134Q138 61 210 61H331Q400 61 400 123V163Q400 190 383 205T331 220H206Q137 220 103 250T69 343V388Q69 510 206 510H331Q402 510
435 478T469 380V361Q469 348 456 348H408Q395 348 395 361V379Q395 444 324 444H211Q143 444 143 383V348Q143 286 211 286H340Q409 286 441 257T474 168V118Q474 -5 336 -5H201Z" />
<glyph unicode="t" glyph-name="t" horiz-adv-x="386" d="M190 439V149Q190 104 208 85T273 66H326Q341 66 341 53V13Q341 0 326 0H265Q189 0 153 36T116 149V439H36Q23 439 23 452V492Q23 505 36 505H116V587Q116 600 130 600H177Q190 600 190 587V505H326Q341
505 341 492V452Q341 439 326 439H190Z" />
<glyph unicode="u" glyph-name="u" horiz-adv-x="580" d="M231 -5Q155 -5 119 31T83 144V492Q83 505 96 505H143Q156 505 156 492V148Q156 102 175 84T239 65H336Q382 65 400 83T419 148V492Q419 505 432 505H479Q493 505 493 492V13Q493 0 479 0H432Q419 0 419
13V48H414Q403 25 375 10T305 -5H231Z" />
<glyph unicode="v" glyph-name="v" horiz-adv-x="469" d="M207 0Q192 0 188 13L10 488Q9 490 9 494Q9 505 24 505H66Q81 505 85 492L180 236L232 94H237L290 236L384 492Q387 499 391 502T404 505H448Q456 505 459 500T459 486L282 13Q279 6 275 3T262 0H207Z" />
<glyph unicode="w" glyph-name="w" horiz-adv-x="719" d="M176 0Q162 0 159 14L30 485Q29 488 29 493Q29 505 43 505H84Q92 505 96 503T102 492L168 248L204 116H209L321 492Q324 500 328 502T340 505H379Q387 505 391 503T397 492L510 116H515L551 248L617 492Q619
500 623 502T635 505H676Q690 505 690 493Q690 488 689 485L560 14Q557 0 543 0H492Q484 0 480 3T474 14L362 387H357L245 14Q243 6 239 3T227 0H176Z" />
<glyph unicode="x" glyph-name="x" horiz-adv-x="475" d="M38 0Q32 0 29 3T25 10Q25 14 28 18L196 264L44 486Q41 491 41 495Q41 505 53 505H102Q109 505 113 503T123 494L235 327H240L352 494Q357 500 362 502T374 505H424Q436 505 436 495Q436 491 433 486L280
264L447 18Q450 14 450 10Q450 0 438 0H390Q382 0 378 2T368 12L240 200H235L179 116L108 12Q103 5 99 3T86 0H38Z" />
<glyph unicode="y" glyph-name="y" horiz-adv-x="460" d="M68 -190Q55 -190 55 -177V-133Q55 -120 68 -120H100Q129 -120 144 -107T172 -61L199 8L15 488Q14 490 14 494Q14 505 29 505H71Q79 505 83 502T90 492L234 112H239L293 252L385 492Q387 499 391 502T404
505H448Q461 505 461 494L459 486L249 -61Q229 -111 211 -138T167 -177T99 -190H68Z" />
<glyph unicode="z" glyph-name="z" horiz-adv-x="476" d="M63 0Q50 0 50 13V52Q50 65 59 77L342 434V439H73Q60 439 60 452V492Q60 505 73 505H419Q433 505 433 492V453Q433 440 424 428L140 71V66H419Q433 66 433 53V13Q433 0 419 0H63Z" />
<glyph unicode="{" glyph-name="braceleft" horiz-adv-x="354" d="M294 -165Q209 -165 171 -127T133 -4V171Q133 212 114 231T53 251H48Q35 251 35 265V306Q35 319 48 319H53Q94 319 113 338T133 399V574Q133 658 171 696T294 735H326Q339 735 339 722V682Q339
669 326 669H295Q249 669 228 648T206 580V403Q206 350 191 325T148 288V283Q206 262 206 168V-10Q206 -56 227 -77T295 -99H326Q339 -99 339 -112V-152Q339 -165 326 -165H294Z" />
<glyph unicode="|" glyph-name="bar" horiz-adv-x="320" d="M138 -100Q125 -100 125 -87V787Q125 800 138 800H182Q195 800 195 787V-87Q195 -100 182 -100H138Z" />
<glyph unicode="}" glyph-name="braceright" horiz-adv-x="354" d="M28 -165Q15 -165 15 -152V-112Q15 -99 28 -99H59Q105 -99 126 -78T148 -10V168Q148 221 163 245T206 282V288Q148 307 148 403V580Q148 626 127 647T59 669H28Q15 669 15 682V722Q15 735 28
735H60Q145 735 183 697T221 574V399Q221 358 240 339T301 319H306Q319 319 319 306V265Q319 251 306 251H301Q260 251 241 232T221 171V-4Q221 -88 183 -126T60 -165H28Z" />
<glyph unicode="~" glyph-name="asciitilde" horiz-adv-x="633" d="M360 285Q319 285 301 299T283 341V360Q283 376 276 383T250 391H224Q207 391 200 383T192 358V303Q192 290 179 290H139Q126 290 126 303V369Q126 413 146 433T210 453H274Q315 453 332 439T350
397V377Q350 362 357 355T382 348H409Q426 348 433 355T441 380V435Q441 448 454 448H494Q507 448 507 435V369Q507 325 487 305T423 285H360Z" />
</font>
</defs>
</svg>
